<svg xmlns="http://www.w3.org/2000/svg" width="1600" height="900" viewBox="0 0 1600 900">
  <defs>
    <linearGradient id="dawn" x1="0" y1="0" x2="1" y2="1">
      <stop offset="0%" stop-color="#e0dcfa" />
      <stop offset="100%" stop-color="#c5bdf6" />
    </linearGradient>
    <radialGradient id="glow" cx="0.7" cy="0.25" r="0.7">
      <stop offset="0%" stop-color="#fff4ff" stop-opacity="0.75" />
      <stop offset="100%" stop-color="#fff4ff" stop-opacity="0" />
    </radialGradient>
  </defs>
  <rect width="1600" height="900" fill="url(#dawn)" />
  <rect width="1600" height="900" fill="url(#glow)" />
  <g fill="#fff7ff" opacity="0.7">
    <circle cx="260" cy="160" r="2" />
    <circle cx="520" cy="220" r="2.4" />
    <circle cx="820" cy="180" r="3" />
    <circle cx="1140" cy="150" r="2.6" />
    <circle cx="1420" cy="210" r="2.2" />
    <circle cx="360" cy="420" r="2.2" />
    <circle cx="640" cy="480" r="2.8" />
    <circle cx="980" cy="450" r="2.4" />
    <circle cx="1300" cy="470" r="2.6" />
    <circle cx="460" cy="700" r="2.2" />
    <circle cx="780" cy="720" r="2.6" />
    <circle cx="1200" cy="680" r="2.1" />
  </g>
  <path d="M0 780c220-60 340-100 520-90s360 130 540 120 320-100 540-150v240H0z" fill="#b8aff3" opacity="0.38" />
</svg>
